<?xml version="1.0" encoding="UTF-8"?>
<svg xmlns="http://www.w3.org/2000/svg" version="1.1" width="512px" height="512px" style="shape-rendering:geometricPrecision; text-rendering:geometricPrecision; image-rendering:optimizeQuality; fill-rule:evenodd; clip-rule:evenodd" xmlns:xlink="http://www.w3.org/1999/xlink">
<g><path style="opacity:0.97" fill="#000000" d="M 298.5,23.5 C 315.963,22.3052 328.13,29.6386 335,45.5C 336.9,54.167 338.733,62.8337 340.5,71.5C 354.504,71.3334 368.504,71.5001 382.5,72C 390.667,74.8333 396.167,80.3333 399,88.5C 399.167,202.168 399.667,315.835 400.5,429.5C 424.428,425.012 448.428,420.845 472.5,417C 477.548,416.403 479.882,413.57 479.5,408.5C 461.775,301.816 443.942,195.15 426,88.5C 424.977,80.0498 420.144,76.5498 411.5,78C 404.649,72.2188 404.982,66.8855 412.5,62C 427.369,60.1827 437.203,66.3494 442,80.5C 460,187.833 478,295.167 496,402.5C 498.448,417.111 492.948,427.278 479.5,433C 366.723,452.213 253.889,471.046 141,489.5C 127.553,488.388 119.387,481.222 116.5,468C 118.153,459.84 122.819,457.507 130.5,461C 132.563,463.511 134.063,466.344 135,469.5C 136.722,471.444 138.889,472.444 141.5,472.5C 190.186,464.441 238.852,456.275 287.5,448C 202.5,447.667 117.5,447.333 32.5,447C 24.3333,444.167 18.8333,438.667 16,430.5C 15.006,315.444 15.3393,200.444 17,85.5C 20.3141,78.8513 25.4808,74.3513 32.5,72C 129.166,71.5 225.833,71.3333 322.5,71.5C 321.75,63.2474 319.916,55.2474 317,47.5C 308.333,38.1667 299.667,38.1667 291,47.5C 288.528,51.7984 288.028,56.2984 289.5,61C 287.976,68.1854 283.643,70.8521 276.5,69C 275.333,67.8333 274.167,66.6667 273,65.5C 269.044,43.7211 277.544,29.7211 298.5,23.5 Z M 39.5,87.5 C 135.167,87.5 230.833,87.5 326.5,87.5C 329.656,102.458 332.656,117.458 335.5,132.5C 335.072,138.095 332.072,140.595 326.5,140C 324.714,139.215 323.214,138.049 322,136.5C 318.667,121.833 315.333,107.167 312,92.5C 307,87.1667 302,87.1667 297,92.5C 298.141,110.541 301.474,128.208 307,145.5C 316.104,157.651 327.604,160.484 341.5,154C 351.1,146.877 354.6,137.377 352,125.5C 349.176,112.881 346.676,100.215 344.5,87.5C 354.839,87.3335 365.172,87.5002 375.5,88C 380,88.5 382.5,91 383,95.5C 383.994,205.889 383.66,316.223 382,426.5C 380.661,429.094 378.494,430.594 375.5,431C 263.5,431.667 151.5,431.667 39.5,431C 36.5056,430.594 34.339,429.094 33,426.5C 31.3396,316.223 31.0063,205.889 32,95.5C 32.6804,90.9895 35.1804,88.3228 39.5,87.5 Z"/></g>
</svg>
